<svg width="17" height="16" viewBox="0 0 17 16" fill="none" xmlns="http://www.w3.org/2000/svg">
<path opacity="0.3" d="M3.54688 12.0532V12.6665H4.16021L10.2002 6.62652L9.58688 6.01318L3.54688 12.0532Z" fill="#0061F4"/>
<path d="M14.0205 4.69333C14.2805 4.43333 14.2805 4.01333 14.0205 3.75333L12.4605 2.19333C12.3272 2.06 12.1605 2 11.9872 2C11.8139 2 11.6472 2.06667 11.5205 2.19333L10.3005 3.41333L12.8005 5.91333L14.0205 4.69333ZM2.21387 11.5V14H4.71387L12.0872 6.62667L9.5872 4.12667L2.21387 11.5ZM4.16053 12.6667H3.5472V12.0533L9.5872 6.01333L10.2005 6.62667L4.16053 12.6667Z" fill="#1A75FF"/>
</svg>
