<svg width="22" height="20" viewBox="0 0 22 20" fill="none" xmlns="http://www.w3.org/2000/svg">
<path d="M0.6875 6.81818C0.6875 5.81403 1.56694 5 2.65179 5H19.3482C20.4331 5 21.3125 5.81403 21.3125 6.81818V15.6818C21.3125 16.686 20.4331 17.5 19.3482 17.5H2.65179C1.56694 17.5 0.6875 16.686 0.6875 15.6818V6.81818Z" fill="#E8F1FF"/>
<path d="M2.65179 2.5H7.01757L8.73632 4.11184H19.3482C20.4331 4.11184 21.3125 4.93658 21.3125 5.95395V6.875C21.3125 5.85763 20.4331 5.03289 19.3482 5.03289H2.65179C1.56694 5.03289 0.6875 5.85763 0.6875 6.875V4.34211C0.6875 3.32474 1.56694 2.5 2.65179 2.5Z" fill="#0277BD"/>
</svg>
