<svg width="48" height="50" viewBox="0 0 48 50" fill="none" xmlns="http://www.w3.org/2000/svg">
<path d="M1.5 17.0455C1.5 14.5351 3.41878 12.5 5.78571 12.5H42.2143C44.5812 12.5 46.5 14.5351 46.5 17.0455V39.2045C46.5 41.7149 44.5812 43.75 42.2143 43.75H5.78571C3.41878 43.75 1.5 41.7149 1.5 39.2045V17.0455Z" fill="#4FC3F7"/>
<path d="M5.78571 6.25H15.3111L19.0611 10.2796H42.2143C44.5812 10.2796 46.5 12.3415 46.5 14.8849V17.1875C46.5 14.6441 44.5812 12.5822 42.2143 12.5822H5.78571C3.41878 12.5822 1.5 14.6441 1.5 17.1875V10.8553C1.5 8.31185 3.41878 6.25 5.78571 6.25Z" fill="#0277BD"/>
</svg>
