<svg width="91" height="84" viewBox="0 0 91 84" fill="none" xmlns="http://www.w3.org/2000/svg">
<ellipse cx="45.7541" cy="42" rx="44.9504" ry="42" fill="url(#paint0_linear_663_18765)"/>
<g clip-path="url(#clip0_663_18765)">
<path d="M28.1406 15.25C28.4608 14.8619 28.876 14.5469 29.3533 14.3299C29.8306 14.113 30.357 14 30.8906 14H60.1094C60.643 14 61.1694 14.113 61.6467 14.3299C62.124 14.5469 62.5392 14.8619 62.8594 15.25L72.6562 27.125C72.8794 27.3955 73 27.7244 73 28.0625V60.875C73 61.7038 72.6378 62.4987 71.9932 63.0847C71.3485 63.6708 70.4742 64 69.5625 64H21.4375C20.5258 64 19.6515 63.6708 19.0068 63.0847C18.3622 62.4987 18 61.7038 18 60.875V28.0625C18 27.7244 18.1206 27.3955 18.3438 27.125L28.1406 15.25ZM43.7812 17.125H30.8906L23.1562 26.5H43.7812V17.125ZM47.2188 17.125V26.5H67.8438L60.1094 17.125H47.2188ZM69.5625 29.625H21.4375V60.875H69.5625V29.625Z" fill="#1975FF"/>
</g>
<defs>
<linearGradient id="paint0_linear_663_18765" x1="80.5907" y1="2.14197e-06" x2="49.6645" y2="85.4158" gradientUnits="userSpaceOnUse">
<stop stop-color="#6EDBFB"/>
<stop offset="1" stop-color="#BAEFFF"/>
</linearGradient>
<clipPath id="clip0_663_18765">
<rect width="55" height="50" fill="white" transform="translate(18 14)"/>
</clipPath>
</defs>
</svg>
